# xmcd
#
# Track frame offsets: 
#        150
#        25629
#        40810
#        63766
#        80981
#        110599
#        130051
#        165178
#        184798
#        215505
#        231406
#        268589
#
# Disc length: 4028 seconds
#
# Revision: 0
# Processed by: cddbd v1.5.1PL0 Copyright (c) Steve Scherf et al.
# Submitted via: ExactAudioCopy v0.95a5
#
DISCID=9e0fba0c
DTITLE=Kaye Bohler - Live At Moe's Alley
DYEAR=2003
DGENRE=Blues
TTITLE0=If You Know It
TTITLE1=Welcome Blues
TTITLE2=Hard To Sing The Blues
TTITLE3=I Just Couldn't Stand It Anymore
TTITLE4=Come To Mamma
TTITLE5=Wrong Man Blues
TTITLE6=I'd Rather Go Blind
TTITLE7=Broke and Hungry
TTITLE8=Blue Collar Mama
TTITLE9=Flamin' Mamie
TTITLE10=I Want To Know
TTITLE11=Waiting for My Time to Come
EXTD=
EXTT0=
EXTT1=
EXTT2=
EXTT3=
EXTT4=
EXTT5=
EXTT6=
EXTT7=
EXTT8=
EXTT9=
EXTT10=
EXTT11=
PLAYORDER=
